<svg width="23" height="24" viewBox="0 0 23 24" fill="none" xmlns="http://www.w3.org/2000/svg">
  <path fill-rule="evenodd" clip-rule="evenodd" d="M21.5439 7.4466L18.92 4.74716L15.5701 6.35472H13.6138C13.1365 6.35472 12.6624 6.27582 12.2108 6.12121L4.42237 3.45485C3.77633 3.23368 3.07333 3.5781 2.85216 4.22413C2.80803 4.35304 2.78551 4.48835 2.78551 4.6246V12.4897L0.525391 13.5743L1.1104 19.3499L4.02285 22.3825C4.80976 23.184 5.90538 23.6816 7.11724 23.6816L18.6685 23.6816C21.0609 23.6816 23.0002 21.7423 23.0002 19.3499V10.6865C23.0002 9.39753 22.4373 8.2401 21.5439 7.4466Z" fill="url(#paint0_linear_4701_2480)" />
  <path fill-rule="evenodd" clip-rule="evenodd" d="M4.33173 20.7939H15.883C18.2754 20.7939 20.2147 18.8546 20.2147 16.4622V7.79876C20.2147 5.40641 18.2754 3.46703 15.883 3.46703H10.8283C10.351 3.46703 9.8769 3.38812 9.42529 3.23352L7.14692 2.45352L1.63686 0.567154C0.990826 0.345985 0.287819 0.690405 0.0666501 1.33644C0.0225202 1.46534 0 1.60065 0 1.7369L0 16.4622C0 18.8546 1.93938 20.7939 4.33173 20.7939Z" fill="#0076FF" />
  <path d="M5.77545 13.5743C6.5729 13.5743 7.21936 12.9279 7.21936 12.1304C7.21936 11.333 6.5729 10.6865 5.77545 10.6865C4.978 10.6865 4.33154 11.333 4.33154 12.1304C4.33154 12.9279 4.978 13.5743 5.77545 13.5743Z" fill="white" />
  <path d="M12.9952 13.5743C13.7926 13.5743 14.4391 12.9279 14.4391 12.1304C14.4391 11.333 13.7926 10.6865 12.9952 10.6865C12.1977 10.6865 11.5513 11.333 11.5513 12.1304C11.5513 12.9279 12.1977 13.5743 12.9952 13.5743Z" fill="white" />
  <defs>
    <linearGradient id="paint0_linear_4701_2480" x1="11.7628" y1="23.6816" x2="15.6017" y2="-3.73922" gradientUnits="userSpaceOnUse">
      <stop stop-color="#00AEFF" />
      <stop offset="1" stop-color="#0076FF" />
    </linearGradient>
  </defs>
</svg>